<svg xmlns="http://www.w3.org/2000/svg" xmlns:xlink="http://www.w3.org/1999/xlink" contentStyleType="text/css" data-diagram-type="CLASS" height="658px" preserveAspectRatio="none" style="width:1460px;height:658px;background:#FFFFFF;" version="1.1" viewBox="0 0 1460 658" width="1460px" zoomAndPan="magnify"><defs/><g><!--class ???????????--><g class="entity" data-entity="&#1053;&#1072;&#1087;&#1088;&#1072;&#1074;&#1083;&#1077;&#1085;&#1080;&#1077;" data-source-line="9" data-uid="ent0002" id="entity_&#1053;&#1072;&#1087;&#1088;&#1072;&#1074;&#1083;&#1077;&#1085;&#1080;&#1077;"><rect fill="none" height="113.1875" rx="2.5" ry="2.5" style="stroke:#888888;stroke-width:0.5;" width="269.8584" x="775.9" y="7"/><ellipse cx="857.3775" cy="23" fill="#ADD1B2" rx="11" ry="11" style="stroke:#181818;stroke-width:1;"/><path d="M860.3463,28.6406 Q859.7682,28.9375 859.1275,29.0781 Q858.4869,29.2344 857.7838,29.2344 Q855.2838,29.2344 853.9557,27.5938 Q852.6432,25.9375 852.6432,22.8125 Q852.6432,19.6875 853.9557,18.0313 Q855.2838,16.375 857.7838,16.375 Q858.4869,16.375 859.1275,16.5313 Q859.7838,16.6875 860.3463,16.9844 L860.3463,19.7031 Q859.7213,19.125 859.1275,18.8594 Q858.5338,18.5781 857.9088,18.5781 Q856.565,18.5781 855.8775,19.6563 Q855.19,20.7188 855.19,22.8125 Q855.19,24.9063 855.8775,25.9844 Q856.565,27.0469 857.9088,27.0469 Q858.5338,27.0469 859.1275,26.7813 Q859.7213,26.5 860.3463,25.9219 L860.3463,28.6406 Z " fill="#000000"/><text fill="#000000" font-family="sans-serif" font-size="14" lengthAdjust="spacing" textLength="98.4033" x="877.8775" y="27.8467">&#1053;&#1072;&#1087;&#1088;&#1072;&#1074;&#1083;&#1077;&#1085;&#1080;&#1077;</text><line style="stroke:#888888;stroke-width:0.5;" x1="776.9" x2="1044.7584" y1="39" y2="39"/><ellipse cx="786.9" cy="52.6484" fill="none" rx="3" ry="3" style="stroke:#038048;stroke-width:1;"/><text fill="#000000" font-family="sans-serif" font-size="14" lengthAdjust="spacing" textLength="113.5107" x="795.9" y="55.9951">string &#1085;&#1072;&#1079;&#1074;&#1072;&#1085;&#1080;&#1077;</text><ellipse cx="786.9" cy="68.9453" fill="none" rx="3" ry="3" style="stroke:#038048;stroke-width:1;"/><text fill="#000000" font-family="sans-serif" font-size="14" lengthAdjust="spacing" textLength="114.5977" x="795.9" y="72.292">string &#1086;&#1087;&#1080;&#1089;&#1072;&#1085;&#1080;&#1077;</text><ellipse cx="786.9" cy="85.2422" fill="none" rx="3" ry="3" style="stroke:#038048;stroke-width:1;"/><text fill="#000000" font-family="sans-serif" font-size="14" lengthAdjust="spacing" textLength="235.0811" x="795.9" y="88.5889">&#1057;&#1087;&#1080;&#1089;&#1086;&#1082;&lt;&#1050;&#1072;&#1090;&#1077;&#1075;&#1086;&#1088;&#1080;&#1103;&gt; &#1082;&#1072;&#1090;&#1077;&#1075;&#1086;&#1088;&#1080;&#1080;</text><ellipse cx="786.9" cy="101.5391" fill="none" rx="3" ry="3" style="stroke:#038048;stroke-width:1;"/><text fill="#000000" font-family="sans-serif" font-size="14" lengthAdjust="spacing" textLength="243.8584" x="795.9" y="104.8857">&#1057;&#1087;&#1080;&#1089;&#1086;&#1082;&lt;&#1050;&#1086;&#1085;&#1094;&#1077;&#1087;&#1094;&#1080;&#1103;&gt; &#1082;&#1086;&#1085;&#1094;&#1077;&#1087;&#1094;&#1080;&#1080;</text><line style="stroke:#888888;stroke-width:0.5;" x1="776.9" x2="1044.7584" y1="112.1875" y2="112.1875"/></g><!--class ?????--><g class="entity" data-entity="&#1064;&#1082;&#1086;&#1083;&#1072;" data-source-line="16" data-uid="ent0003" id="entity_&#1064;&#1082;&#1086;&#1083;&#1072;"><rect fill="none" height="113.1875" rx="2.5" ry="2.5" style="stroke:#888888;stroke-width:0.5;" width="251.4219" x="1201.76" y="117"/><ellipse cx="1298.4612" cy="133" fill="#ADD1B2" rx="11" ry="11" style="stroke:#181818;stroke-width:1;"/><path d="M1301.4299,138.6406 Q1300.8518,138.9375 1300.2112,139.0781 Q1299.5705,139.2344 1298.8674,139.2344 Q1296.3674,139.2344 1295.0393,137.5938 Q1293.7268,135.9375 1293.7268,132.8125 Q1293.7268,129.6875 1295.0393,128.0313 Q1296.3674,126.375 1298.8674,126.375 Q1299.5705,126.375 1300.2112,126.5313 Q1300.8674,126.6875 1301.4299,126.9844 L1301.4299,129.7031 Q1300.8049,129.125 1300.2112,128.8594 Q1299.6174,128.5781 1298.9924,128.5781 Q1297.6487,128.5781 1296.9612,129.6563 Q1296.2737,130.7188 1296.2737,132.8125 Q1296.2737,134.9063 1296.9612,135.9844 Q1297.6487,137.0469 1298.9924,137.0469 Q1299.6174,137.0469 1300.2112,136.7813 Q1300.8049,136.5 1301.4299,135.9219 L1301.4299,138.6406 Z " fill="#000000"/><text fill="#000000" font-family="sans-serif" font-size="14" lengthAdjust="spacing" textLength="49.5195" x="1318.9612" y="137.8467">&#1064;&#1082;&#1086;&#1083;&#1072;</text><line style="stroke:#888888;stroke-width:0.5;" x1="1202.76" x2="1452.1819" y1="149" y2="149"/><ellipse cx="1212.76" cy="162.6484" fill="none" rx="3" ry="3" style="stroke:#038048;stroke-width:1;"/><text fill="#000000" font-family="sans-serif" font-size="14" lengthAdjust="spacing" textLength="113.5107" x="1221.76" y="165.9951">string &#1085;&#1072;&#1079;&#1074;&#1072;&#1085;&#1080;&#1077;</text><ellipse cx="1212.76" cy="178.9453" fill="none" rx="3" ry="3" style="stroke:#038048;stroke-width:1;"/><text fill="#000000" font-family="sans-serif" font-size="14" lengthAdjust="spacing" textLength="114.5977" x="1221.76" y="182.292">string &#1086;&#1087;&#1080;&#1089;&#1072;&#1085;&#1080;&#1077;</text><ellipse cx="1212.76" cy="195.2422" fill="none" rx="3" ry="3" style="stroke:#038048;stroke-width:1;"/><text fill="#000000" font-family="sans-serif" font-size="14" lengthAdjust="spacing" textLength="199.8828" x="1221.76" y="198.5889">&#1053;&#1072;&#1087;&#1088;&#1072;&#1074;&#1083;&#1077;&#1085;&#1080;&#1077; &#1085;&#1072;&#1087;&#1088;&#1072;&#1074;&#1083;&#1077;&#1085;&#1080;&#1077;</text><ellipse cx="1212.76" cy="211.5391" fill="none" rx="3" ry="3" style="stroke:#038048;stroke-width:1;"/><text fill="#000000" font-family="sans-serif" font-size="14" lengthAdjust="spacing" textLength="225.4219" x="1221.76" y="214.8857">&#1057;&#1087;&#1080;&#1089;&#1086;&#1082;&lt;&#1060;&#1080;&#1083;&#1086;&#1089;&#1086;&#1092;&gt; &#1092;&#1080;&#1083;&#1086;&#1089;&#1086;&#1092;&#1099;</text><line style="stroke:#888888;stroke-width:0.5;" x1="1202.76" x2="1452.1819" y1="222.1875" y2="222.1875"/></g><!--class ?????????--><g class="entity" data-entity="&#1050;&#1086;&#1085;&#1094;&#1077;&#1087;&#1094;&#1080;&#1103;" data-source-line="23" data-uid="ent0004" id="entity_&#1050;&#1086;&#1085;&#1094;&#1077;&#1087;&#1094;&#1080;&#1103;"><rect fill="none" height="96.8906" rx="2.5" ry="2.5" style="stroke:#888888;stroke-width:0.5;" width="251.4219" x="785.12" y="226.15"/><ellipse cx="865.579" cy="242.15" fill="#ADD1B2" rx="11" ry="11" style="stroke:#181818;stroke-width:1;"/><path d="M868.5477,247.7906 Q867.9696,248.0875 867.329,248.2281 Q866.6884,248.3844 865.9852,248.3844 Q863.4852,248.3844 862.1571,246.7437 Q860.8446,245.0875 860.8446,241.9625 Q860.8446,238.8375 862.1571,237.1812 Q863.4852,235.525 865.9852,235.525 Q866.6884,235.525 867.329,235.6812 Q867.9852,235.8375 868.5477,236.1344 L868.5477,238.8531 Q867.9227,238.275 867.329,238.0094 Q866.7352,237.7281 866.1102,237.7281 Q864.7665,237.7281 864.079,238.8062 Q863.3915,239.8687 863.3915,241.9625 Q863.3915,244.0562 864.079,245.1344 Q864.7665,246.1969 866.1102,246.1969 Q866.7352,246.1969 867.329,245.9312 Q867.9227,245.65 868.5477,245.0719 L868.5477,247.7906 Z " fill="#000000"/><text fill="#000000" font-family="sans-serif" font-size="14" lengthAdjust="spacing" textLength="82.0039" x="886.079" y="246.9967">&#1050;&#1086;&#1085;&#1094;&#1077;&#1087;&#1094;&#1080;&#1103;</text><line style="stroke:#888888;stroke-width:0.5;" x1="786.12" x2="1035.5419" y1="258.15" y2="258.15"/><ellipse cx="796.12" cy="271.7984" fill="none" rx="3" ry="3" style="stroke:#038048;stroke-width:1;"/><text fill="#000000" font-family="sans-serif" font-size="14" lengthAdjust="spacing" textLength="113.5107" x="805.12" y="275.1451">string &#1085;&#1072;&#1079;&#1074;&#1072;&#1085;&#1080;&#1077;</text><ellipse cx="796.12" cy="288.0953" fill="none" rx="3" ry="3" style="stroke:#038048;stroke-width:1;"/><text fill="#000000" font-family="sans-serif" font-size="14" lengthAdjust="spacing" textLength="199.8828" x="805.12" y="291.442">&#1053;&#1072;&#1087;&#1088;&#1072;&#1074;&#1083;&#1077;&#1085;&#1080;&#1077; &#1085;&#1072;&#1087;&#1088;&#1072;&#1074;&#1083;&#1077;&#1085;&#1080;&#1077;</text><ellipse cx="796.12" cy="304.3922" fill="none" rx="3" ry="3" style="stroke:#038048;stroke-width:1;"/><text fill="#000000" font-family="sans-serif" font-size="14" lengthAdjust="spacing" textLength="225.4219" x="805.12" y="307.7389">&#1057;&#1087;&#1080;&#1089;&#1086;&#1082;&lt;&#1060;&#1080;&#1083;&#1086;&#1089;&#1086;&#1092;&gt; &#1092;&#1080;&#1083;&#1086;&#1089;&#1086;&#1092;&#1099;</text><line style="stroke:#888888;stroke-width:0.5;" x1="786.12" x2="1035.5419" y1="315.0406" y2="315.0406"/></g><!--class ???????--><g class="entity" data-entity="&#1060;&#1080;&#1083;&#1086;&#1089;&#1086;&#1092;" data-source-line="29" data-uid="ent0005" id="entity_&#1060;&#1080;&#1083;&#1086;&#1089;&#1086;&#1092;"><rect fill="none" height="162.0781" rx="2.5" ry="2.5" style="stroke:#888888;stroke-width:0.5;" width="269.8584" x="7" y="177.55"/><ellipse cx="104.231" cy="193.55" fill="#ADD1B2" rx="11" ry="11" style="stroke:#181818;stroke-width:1;"/><path d="M107.1997,199.1906 Q106.6216,199.4875 105.981,199.6281 Q105.3403,199.7844 104.6372,199.7844 Q102.1372,199.7844 100.8091,198.1437 Q99.4966,196.4875 99.4966,193.3625 Q99.4966,190.2375 100.8091,188.5812 Q102.1372,186.925 104.6372,186.925 Q105.3403,186.925 105.981,187.0812 Q106.6372,187.2375 107.1997,187.5344 L107.1997,190.2531 Q106.5747,189.675 105.981,189.4094 Q105.3872,189.1281 104.7622,189.1281 Q103.4185,189.1281 102.731,190.2062 Q102.0435,191.2687 102.0435,193.3625 Q102.0435,195.4562 102.731,196.5344 Q103.4185,197.5969 104.7622,197.5969 Q105.3872,197.5969 105.981,197.3312 Q106.5747,197.05 107.1997,196.4719 L107.1997,199.1906 Z " fill="#000000"/><text fill="#000000" font-family="sans-serif" font-size="14" lengthAdjust="spacing" textLength="66.8965" x="124.731" y="198.3967">&#1060;&#1080;&#1083;&#1086;&#1089;&#1086;&#1092;</text><line style="stroke:#888888;stroke-width:0.5;" x1="8" x2="275.8584" y1="209.55" y2="209.55"/><ellipse cx="18" cy="223.1984" fill="none" rx="3" ry="3" style="stroke:#038048;stroke-width:1;"/><text fill="#000000" font-family="sans-serif" font-size="14" lengthAdjust="spacing" textLength="72.7207" x="27" y="226.5451">string &#1080;&#1084;&#1103;</text><ellipse cx="18" cy="239.4953" fill="none" rx="3" ry="3" style="stroke:#038048;stroke-width:1;"/><text fill="#000000" font-family="sans-serif" font-size="14" lengthAdjust="spacing" textLength="135.7002" x="27" y="242.842">string &#1075;&#1086;&#1076;&#1099;_&#1078;&#1080;&#1079;&#1085;&#1080;</text><ellipse cx="18" cy="255.7922" fill="none" rx="3" ry="3" style="stroke:#038048;stroke-width:1;"/><text fill="#000000" font-family="sans-serif" font-size="14" lengthAdjust="spacing" textLength="95.6895" x="27" y="259.1389">string &#1089;&#1090;&#1088;&#1072;&#1085;&#1072;</text><ellipse cx="18" cy="272.0891" fill="none" rx="3" ry="3" style="stroke:#038048;stroke-width:1;"/><text fill="#000000" font-family="sans-serif" font-size="14" lengthAdjust="spacing" textLength="199.8828" x="27" y="275.4357">&#1053;&#1072;&#1087;&#1088;&#1072;&#1074;&#1083;&#1077;&#1085;&#1080;&#1077; &#1085;&#1072;&#1087;&#1088;&#1072;&#1074;&#1083;&#1077;&#1085;&#1080;&#1077;</text><ellipse cx="18" cy="288.3859" fill="none" rx="3" ry="3" style="stroke:#038048;stroke-width:1;"/><text fill="#000000" font-family="sans-serif" font-size="14" lengthAdjust="spacing" textLength="243.8584" x="27" y="291.7326">&#1057;&#1087;&#1080;&#1089;&#1086;&#1082;&lt;&#1050;&#1086;&#1085;&#1094;&#1077;&#1087;&#1094;&#1080;&#1103;&gt; &#1082;&#1086;&#1085;&#1094;&#1077;&#1087;&#1094;&#1080;&#1080;</text><ellipse cx="18" cy="304.6828" fill="none" rx="3" ry="3" style="stroke:#038048;stroke-width:1;"/><text fill="#000000" font-family="sans-serif" font-size="14" lengthAdjust="spacing" textLength="235.0811" x="27" y="308.0295">&#1057;&#1087;&#1080;&#1089;&#1086;&#1082;&lt;&#1050;&#1072;&#1090;&#1077;&#1075;&#1086;&#1088;&#1080;&#1103;&gt; &#1082;&#1072;&#1090;&#1077;&#1075;&#1086;&#1088;&#1080;&#1080;</text><ellipse cx="18" cy="320.9797" fill="none" rx="3" ry="3" style="stroke:#038048;stroke-width:1;"/><text fill="#000000" font-family="sans-serif" font-size="14" lengthAdjust="spacing" textLength="185.4863" x="27" y="324.3264">&#1057;&#1087;&#1080;&#1089;&#1086;&#1082;&lt;&#1056;&#1072;&#1073;&#1086;&#1090;&#1072;&gt; &#1088;&#1072;&#1073;&#1086;&#1090;&#1099;</text><line style="stroke:#888888;stroke-width:0.5;" x1="8" x2="275.8584" y1="331.6281" y2="331.6281"/></g><!--class ??????--><g class="entity" data-entity="&#1056;&#1072;&#1073;&#1086;&#1090;&#1072;" data-source-line="39" data-uid="ent0006" id="entity_&#1056;&#1072;&#1073;&#1086;&#1090;&#1072;"><rect fill="none" height="129.4844" rx="2.5" ry="2.5" style="stroke:#888888;stroke-width:0.5;" width="227.0449" x="392.86" y="279.85"/><ellipse cx="476.6549" cy="295.85" fill="#ADD1B2" rx="11" ry="11" style="stroke:#181818;stroke-width:1;"/><path d="M479.6237,301.4906 Q479.0455,301.7875 478.4049,301.9281 Q477.7643,302.0844 477.0612,302.0844 Q474.5612,302.0844 473.233,300.4437 Q471.9205,298.7875 471.9205,295.6625 Q471.9205,292.5375 473.233,290.8812 Q474.5612,289.225 477.0612,289.225 Q477.7643,289.225 478.4049,289.3812 Q479.0612,289.5375 479.6237,289.8344 L479.6237,292.5531 Q478.9987,291.975 478.4049,291.7094 Q477.8112,291.4281 477.1862,291.4281 Q475.8424,291.4281 475.1549,292.5062 Q474.4674,293.5687 474.4674,295.6625 Q474.4674,297.7562 475.1549,298.8344 Q475.8424,299.8969 477.1862,299.8969 Q477.8112,299.8969 478.4049,299.6312 Q478.9987,299.35 479.6237,298.7719 L479.6237,301.4906 Z " fill="#000000"/><text fill="#000000" font-family="sans-serif" font-size="14" lengthAdjust="spacing" textLength="50.9551" x="497.1549" y="300.6967">&#1056;&#1072;&#1073;&#1086;&#1090;&#1072;</text><line style="stroke:#888888;stroke-width:0.5;" x1="393.86" x2="618.9049" y1="311.85" y2="311.85"/><ellipse cx="403.86" cy="325.4984" fill="none" rx="3" ry="3" style="stroke:#038048;stroke-width:1;"/><text fill="#000000" font-family="sans-serif" font-size="14" lengthAdjust="spacing" textLength="113.5107" x="412.86" y="328.8451">string &#1085;&#1072;&#1079;&#1074;&#1072;&#1085;&#1080;&#1077;</text><ellipse cx="403.86" cy="341.7953" fill="none" rx="3" ry="3" style="stroke:#038048;stroke-width:1;"/><text fill="#000000" font-family="sans-serif" font-size="14" lengthAdjust="spacing" textLength="48.3027" x="412.86" y="345.142">int &#1075;&#1086;&#1076;</text><ellipse cx="403.86" cy="358.0922" fill="none" rx="3" ry="3" style="stroke:#038048;stroke-width:1;"/><text fill="#000000" font-family="sans-serif" font-size="14" lengthAdjust="spacing" textLength="115.9854" x="412.86" y="361.4389">&#1058;&#1080;&#1087; &#1088;&#1072;&#1073;&#1086;&#1090;&#1099; &#1090;&#1080;&#1087;</text><ellipse cx="403.86" cy="374.3891" fill="none" rx="3" ry="3" style="stroke:#038048;stroke-width:1;"/><text fill="#000000" font-family="sans-serif" font-size="14" lengthAdjust="spacing" textLength="201.0449" x="412.86" y="377.7357">&#1057;&#1087;&#1080;&#1089;&#1086;&#1082;&lt;&#1060;&#1080;&#1083;&#1086;&#1089;&#1086;&#1092;&gt; &#1072;&#1074;&#1090;&#1086;&#1088;&#1099;</text><ellipse cx="403.86" cy="390.6859" fill="none" rx="3" ry="3" style="stroke:#038048;stroke-width:1;"/><text fill="#000000" font-family="sans-serif" font-size="14" lengthAdjust="spacing" textLength="188.665" x="412.86" y="394.0326">&#1057;&#1087;&#1080;&#1089;&#1086;&#1082;&lt;&#1062;&#1080;&#1090;&#1072;&#1090;&#1072;&gt; &#1094;&#1080;&#1090;&#1072;&#1090;&#1099;</text><line style="stroke:#888888;stroke-width:0.5;" x1="393.86" x2="618.9049" y1="401.3344" y2="401.3344"/></g><!--class ??????--><g class="entity" data-entity="&#1062;&#1080;&#1090;&#1072;&#1090;&#1072;" data-source-line="47" data-uid="ent0007" id="entity_&#1062;&#1080;&#1090;&#1072;&#1090;&#1072;"><rect fill="none" height="80.5938" rx="2.5" ry="2.5" style="stroke:#888888;stroke-width:0.5;" width="149.9014" x="835.88" y="358.3"/><ellipse cx="879.8892" cy="374.3" fill="#ADD1B2" rx="11" ry="11" style="stroke:#181818;stroke-width:1;"/><path d="M882.8579,379.9406 Q882.2798,380.2375 881.6392,380.3781 Q880.9986,380.5344 880.2954,380.5344 Q877.7954,380.5344 876.4673,378.8937 Q875.1548,377.2375 875.1548,374.1125 Q875.1548,370.9875 876.4673,369.3312 Q877.7954,367.675 880.2954,367.675 Q880.9986,367.675 881.6392,367.8312 Q882.2954,367.9875 882.8579,368.2844 L882.8579,371.0031 Q882.2329,370.425 881.6392,370.1594 Q881.0454,369.8781 880.4204,369.8781 Q879.0767,369.8781 878.3892,370.9562 Q877.7017,372.0187 877.7017,374.1125 Q877.7017,376.2062 878.3892,377.2844 Q879.0767,378.3469 880.4204,378.3469 Q881.0454,378.3469 881.6392,378.0812 Q882.2329,377.8 882.8579,377.2219 L882.8579,379.9406 Z " fill="#000000"/><text fill="#000000" font-family="sans-serif" font-size="14" lengthAdjust="spacing" textLength="53.4365" x="900.3357" y="379.1467">&#1062;&#1080;&#1090;&#1072;&#1090;&#1072;</text><line style="stroke:#888888;stroke-width:0.5;" x1="836.88" x2="984.7814" y1="390.3" y2="390.3"/><ellipse cx="846.88" cy="403.9484" fill="none" rx="3" ry="3" style="stroke:#038048;stroke-width:1;"/><text fill="#000000" font-family="sans-serif" font-size="14" lengthAdjust="spacing" textLength="85.7158" x="855.88" y="407.2951">string &#1090;&#1077;&#1082;&#1089;&#1090;</text><ellipse cx="846.88" cy="420.2453" fill="none" rx="3" ry="3" style="stroke:#038048;stroke-width:1;"/><text fill="#000000" font-family="sans-serif" font-size="14" lengthAdjust="spacing" textLength="123.9014" x="855.88" y="423.592">&#1056;&#1072;&#1073;&#1086;&#1090;&#1072; &#1080;&#1089;&#1090;&#1086;&#1095;&#1085;&#1080;&#1082;</text><line style="stroke:#888888;stroke-width:0.5;" x1="836.88" x2="984.7814" y1="430.8937" y2="430.8937"/></g><!--class ??? ??????--><g class="entity" data-entity="&#1058;&#1080;&#1087; &#1088;&#1072;&#1073;&#1086;&#1090;&#1099;" data-source-line="52" data-uid="ent0008" id="entity_&#1058;&#1080;&#1087; &#1088;&#1072;&#1073;&#1086;&#1090;&#1099;"><rect fill="none" height="178.375" rx="2.5" ry="2.5" style="stroke:#888888;stroke-width:0.5;" width="160.9414" x="830.36" y="473.4"/><ellipse cx="865.0761" cy="489.4" fill="#EB937F" rx="11" ry="11" style="stroke:#181818;stroke-width:1;"/><path d="M869.1854,495.4 L861.4667,495.4 L861.4667,483.0094 L869.1854,483.0094 L869.1854,485.1656 L863.9198,485.1656 L863.9198,487.8375 L868.6854,487.8375 L868.6854,489.9938 L863.9198,489.9938 L863.9198,493.2438 L869.1854,493.2438 L869.1854,495.4 Z " fill="#000000"/><text fill="#000000" font-family="sans-serif" font-size="14" lengthAdjust="spacing" textLength="85.1279" x="883.4574" y="494.2467">&#1058;&#1080;&#1087; &#1088;&#1072;&#1073;&#1086;&#1090;&#1099;</text><line style="stroke:#888888;stroke-width:0.5;" x1="831.36" x2="990.3014" y1="505.4" y2="505.4"/><text fill="#000000" font-family="sans-serif" font-size="14" lengthAdjust="spacing" textLength="101.8213" x="836.36" y="522.3951">&#1053;&#1077;&#1054;&#1087;&#1088;&#1077;&#1076;&#1077;&#1083;&#1105;&#1085;</text><text fill="#000000" font-family="sans-serif" font-size="14" lengthAdjust="spacing" textLength="73.5684" x="836.36" y="538.692">&#1048;&#1085;&#1090;&#1077;&#1088;&#1074;&#1100;&#1102;</text><text fill="#000000" font-family="sans-serif" font-size="14" lengthAdjust="spacing" textLength="33.7832" x="836.36" y="554.9889">&#1069;&#1089;&#1089;&#1077;</text><text fill="#000000" font-family="sans-serif" font-size="14" lengthAdjust="spacing" textLength="54.6465" x="836.36" y="571.2857">&#1051;&#1077;&#1082;&#1094;&#1080;&#1103;</text><text fill="#000000" font-family="sans-serif" font-size="14" lengthAdjust="spacing" textLength="59.3633" x="836.36" y="587.5826">&#1058;&#1088;&#1072;&#1082;&#1090;&#1072;&#1090;</text><text fill="#000000" font-family="sans-serif" font-size="14" lengthAdjust="spacing" textLength="44.126" x="836.36" y="603.8795">&#1050;&#1085;&#1080;&#1075;&#1072;</text><text fill="#000000" font-family="sans-serif" font-size="14" lengthAdjust="spacing" textLength="109.8398" x="836.36" y="620.1764">&#1057;&#1073;&#1086;&#1088;&#1085;&#1080;&#1082; &#1088;&#1072;&#1073;&#1086;&#1090;</text><text fill="#000000" font-family="sans-serif" font-size="14" lengthAdjust="spacing" textLength="148.9414" x="836.36" y="636.4732">&#1057;&#1073;&#1086;&#1088;&#1085;&#1080;&#1082; &#1072;&#1092;&#1086;&#1088;&#1080;&#1079;&#1084;&#1086;&#1074;</text><line style="stroke:#888888;stroke-width:0.5;" x1="831.36" x2="990.3014" y1="643.775" y2="643.775"/></g><!--link ??????? to ?????--><g class="link" data-entity-1="&#1060;&#1080;&#1083;&#1086;&#1089;&#1086;&#1092;" data-entity-2="&#1064;&#1082;&#1086;&#1083;&#1072;" data-source-line="63" data-uid="lnk9" id="link_&#1060;&#1080;&#1083;&#1086;&#1089;&#1086;&#1092;_&#1064;&#1082;&#1086;&#1083;&#1072;"><path codeLine="63" d="M277.17,247.39 C405.27,236.84 603.69,220.87 775.9,208.59 C921.95,198.18 1083.9209,188.0811 1195.5309,181.3511" fill="none" id="&#1060;&#1080;&#1083;&#1086;&#1089;&#1086;&#1092;-to-&#1064;&#1082;&#1086;&#1083;&#1072;" style="stroke:#181818;stroke-width:1;"/><polygon fill="#181818" points="1201.52,180.99,1192.2956,177.539,1196.5291,181.2909,1192.7771,185.5245,1201.52,180.99" style="stroke:#181818;stroke-width:1;"/><text fill="#000000" font-family="sans-serif" font-size="13" lengthAdjust="spacing" textLength="94.6943" x="650.9" y="206.6569">&#1087;&#1088;&#1080;&#1085;&#1072;&#1076;&#1083;&#1077;&#1078;&#1080;&#1090;</text></g><!--link ??????? to ??????--><g class="link" data-entity-1="&#1060;&#1080;&#1083;&#1086;&#1089;&#1086;&#1092;" data-entity-2="&#1056;&#1072;&#1073;&#1086;&#1090;&#1072;" data-source-line="64" data-uid="lnk10" id="link_&#1060;&#1080;&#1083;&#1086;&#1089;&#1086;&#1092;_&#1056;&#1072;&#1073;&#1086;&#1090;&#1072;"><path codeLine="64" d="M277.12,290.43 C315.01,299.42 350.0223,307.7237 386.5323,316.3937" fill="none" id="&#1060;&#1080;&#1083;&#1086;&#1089;&#1086;&#1092;-to-&#1056;&#1072;&#1073;&#1086;&#1090;&#1072;" style="stroke:#181818;stroke-width:1;"/><polygon fill="#181818" points="392.37,317.78,384.5377,311.8088,387.5053,316.6248,382.6893,319.5924,392.37,317.78" style="stroke:#181818;stroke-width:1;"/><text fill="#000000" font-family="sans-serif" font-size="13" lengthAdjust="spacing" textLength="54.5391" x="307.86" y="294.6569">&#1089;&#1086;&#1079;&#1076;&#1072;&#1105;&#1090;</text></g><!--link ?????? to ??????--><g class="link" data-entity-1="&#1056;&#1072;&#1073;&#1086;&#1090;&#1072;" data-entity-2="&#1062;&#1080;&#1090;&#1072;&#1090;&#1072;" data-source-line="65" data-uid="lnk11" id="link_&#1056;&#1072;&#1073;&#1086;&#1090;&#1072;_&#1062;&#1080;&#1090;&#1072;&#1090;&#1072;"><path codeLine="65" d="M620.29,359.74 C689.11,368.98 769.1832,379.7226 829.5132,387.8126" fill="none" id="&#1056;&#1072;&#1073;&#1086;&#1090;&#1072;-to-&#1062;&#1080;&#1090;&#1072;&#1090;&#1072;" style="stroke:#181818;stroke-width:1;"/><polygon fill="#181818" points="835.46,388.61,827.0715,383.4493,830.5044,387.9455,826.0082,391.3784,835.46,388.61" style="stroke:#181818;stroke-width:1;"/><text fill="#000000" font-family="sans-serif" font-size="13" lengthAdjust="spacing" textLength="68.0723" x="663.9" y="360.6569">&#1089;&#1086;&#1076;&#1077;&#1088;&#1078;&#1080;&#1090;</text></g><!--link ?????? to ?????????--><g class="link" data-entity-1="&#1056;&#1072;&#1073;&#1086;&#1090;&#1072;" data-entity-2="&#1050;&#1086;&#1085;&#1094;&#1077;&#1087;&#1094;&#1080;&#1103;" data-source-line="66" data-uid="lnk12" id="link_&#1056;&#1072;&#1073;&#1086;&#1090;&#1072;_&#1050;&#1086;&#1085;&#1094;&#1077;&#1087;&#1094;&#1080;&#1103;"><path codeLine="66" d="M620.29,324.95 C671.44,316.06 726.1787,306.5381 778.7287,297.3981" fill="none" id="&#1056;&#1072;&#1073;&#1086;&#1090;&#1072;-to-&#1050;&#1086;&#1085;&#1094;&#1077;&#1087;&#1094;&#1080;&#1103;" style="stroke:#181818;stroke-width:1;"/><polygon fill="#181818" points="784.64,296.37,775.0877,293.9714,779.714,297.2268,776.4585,301.853,784.64,296.37" style="stroke:#181818;stroke-width:1;"/><text fill="#000000" font-family="sans-serif" font-size="13" lengthAdjust="spacing" textLength="68.0723" x="663.9" y="298.6569">&#1089;&#1086;&#1076;&#1077;&#1088;&#1078;&#1080;&#1090;</text></g><!--link ??????????? to ?????--><g class="link" data-entity-1="&#1053;&#1072;&#1087;&#1088;&#1072;&#1074;&#1083;&#1077;&#1085;&#1080;&#1077;" data-entity-2="&#1064;&#1082;&#1086;&#1083;&#1072;" data-source-line="67" data-uid="lnk13" id="link_&#1053;&#1072;&#1087;&#1088;&#1072;&#1074;&#1083;&#1077;&#1085;&#1080;&#1077;_&#1064;&#1082;&#1086;&#1083;&#1072;"><path codeLine="67" d="M1046.17,99.23 C1096.08,112.47 1146.6606,125.8915 1195.7006,138.9015" fill="none" id="&#1053;&#1072;&#1087;&#1088;&#1072;&#1074;&#1083;&#1077;&#1085;&#1080;&#1077;-to-&#1064;&#1082;&#1086;&#1083;&#1072;" style="stroke:#181818;stroke-width:1;"/><polygon fill="#181818" points="1201.5,140.44,1193.8266,134.2659,1196.6672,139.1579,1191.7752,141.9984,1201.5,140.44" style="stroke:#181818;stroke-width:1;"/><text fill="#000000" font-family="sans-serif" font-size="13" lengthAdjust="spacing" textLength="94.6943" x="1076.76" y="105.6569">&#1087;&#1088;&#1080;&#1085;&#1072;&#1076;&#1083;&#1077;&#1078;&#1080;&#1090;</text></g><!--link ????????? to ?????--><g class="link" data-entity-1="&#1050;&#1086;&#1085;&#1094;&#1077;&#1087;&#1094;&#1080;&#1103;" data-entity-2="&#1064;&#1082;&#1086;&#1083;&#1072;" data-source-line="68" data-uid="lnk14" id="link_&#1050;&#1086;&#1085;&#1094;&#1077;&#1087;&#1094;&#1080;&#1103;_&#1064;&#1082;&#1086;&#1083;&#1072;"><path codeLine="68" d="M1036.75,248.09 C1079.66,238.62 1127.92,227.57 1171.76,216.59 C1181.5,214.16 1185.7493,213.0835 1195.8493,210.4135" fill="none" id="&#1050;&#1086;&#1085;&#1094;&#1077;&#1087;&#1094;&#1080;&#1103;-to-&#1064;&#1082;&#1086;&#1083;&#1072;" style="stroke:#181818;stroke-width:1;"/><polygon fill="#181818" points="1201.65,208.88,1191.9266,207.313,1196.8161,210.1579,1193.9712,215.0473,1201.65,208.88" style="stroke:#181818;stroke-width:1;"/><text fill="#000000" font-family="sans-serif" font-size="13" lengthAdjust="spacing" textLength="94.6943" x="1076.76" y="212.6569">&#1087;&#1088;&#1080;&#1085;&#1072;&#1076;&#1083;&#1077;&#1078;&#1080;&#1090;</text></g><!--link ?????? to ??? ??????--><g class="link" data-entity-1="&#1056;&#1072;&#1073;&#1086;&#1090;&#1072;" data-entity-2="&#1058;&#1080;&#1087; &#1088;&#1072;&#1073;&#1086;&#1090;&#1099;" data-source-line="69" data-uid="lnk15" id="link_&#1056;&#1072;&#1073;&#1086;&#1090;&#1072;_&#1058;&#1080;&#1087; &#1088;&#1072;&#1073;&#1086;&#1090;&#1099;"><path codeLine="69" d="M620.29,405.75 C687.02,441.9 764.6445,483.9419 824.6145,516.4319" fill="none" id="&#1056;&#1072;&#1073;&#1086;&#1090;&#1072;-to-&#1058;&#1080;&#1087; &#1088;&#1072;&#1073;&#1086;&#1090;&#1099;" style="stroke:#181818;stroke-width:1;"/><polygon fill="#181818" points="829.89,519.29,823.8821,511.4858,825.4937,516.9082,820.0713,518.5198,829.89,519.29" style="stroke:#181818;stroke-width:1;"/></g><!--SRC=[lLHDQzj04BthLopfiGHwBA7uq4B_HX6sueWuKbaffrA8ZKaF2GsvbPIMDfJIIq5nx5Z8iVqNPlzHdsRNTDVQWmuc2nRUUVFntin8W-Wm5tagPDm_oaKlbb4tZzCa2BBZE7aVol14T0TXbeaFWS1v7NQF-p8zJNflqa4gHIx398DRbEGQJsKlaXfxzf8Fsz-cIMwiB_W47uD09wPlLD1QdU4veGNDQ4abpKozvrakuwGlO2ne3eT2mowueZMLQkY2zDDOLrIzeXigr0Z9xsc5KgMwwWYgN1kL_i0LBTKvtDPuRW8T6mB_g_d3w8AA7IZmTuOpDSm-xhy0B20ELpNk23Msx-h2OjrGsOhz4n9qFBV9bVIehbmJPafJTV6E7e3EQmOEhePgn0H1TKTQsYtABbVp1qZTmM541NftjhavVRDyMeqqJdBJF5Fn5jZQoIwG3BOMywoR1cT802UF-s_y7R7IMi3vvkO8i7os1723gdgI9hUjjIx2fJ-nkghE62Md9sBFesZFPCOEpEWxZtj6K_mMwfgM6lg2GQ8We8cwL9-ryI-A34thw2lJuT5hmotNg3HzRRfXDlTcwT2DEnumKxGe-L0a6PjjcDCZ6ZYfDMsz6Flx7ViJT21OJCcpdlB-FjJzz8RPxJiGFACvWWfrNGVOABlRWp7kK-wFgT08Q7vZV67-rx2rhcQHrg7RXBsRyWy0]--></g></svg>